<?xml version="1.0" standalone="no"?><!DOCTYPE svg PUBLIC "-//W3C//DTD SVG 1.1//EN" "http://www.w3.org/Graphics/SVG/1.1/DTD/svg11.dtd"><svg t="1765903607529" class="icon" viewBox="0 0 1024 1024" version="1.1" xmlns="http://www.w3.org/2000/svg" p-id="9192" width="500" height="500" xmlns:xlink="http://www.w3.org/1999/xlink"><path d="M881.8 360.9v5.4l-0.2 5.4-0.2 5.2-0.4 5.4-0.6 5.2-1.5 10.4-1 5.2-1.2 5.2-1.2 5-1.4 5-1.5 5-1.5 5-1.7 5-1.7 4.8-1.9 4.8-2.1 4.8-2.1 4.6-2.1 4.6-2.3 4.6-2.5 4.4-2.5 4.4-2.7 4.4-2.7 4.2-2.9 4.2-6.2 8.1-3.1 4-3.3 3.9-3.5 3.7-3.5 3.7L481 887.9l-60.4-67.2 389.3-437.6-2.1-1-2.1-1-2.1-1-2.1-1-2.1-1-4.2-1.5-2.1-0.8-2.1-0.8-2.1-0.6-2.1-0.6-2.1-0.4-2.1-0.4-2.1-0.2-2.1-0.2-2.1-0.2h-6.7l-2.1 0.2-4.2 0.8-2.1 0.6-1.9 0.8-1.9 0.8-1.9 1-1.9 1.2-1.9 1.1-1.9 1.4-1.7 1.5-3.5 3.5-84.5 93.7-13.9-6.9 149.9-166.6-5-2.3-2.5-1-2.5-1-2.3-1-2.3-1-6.9-2.3-2.3-0.6-2.3-0.6-2.1-0.6-2.1-0.4-2.1-0.4-2.1-0.2-2.1-0.2-2.1-0.2h-4.2l-1.9 0.2-1.9 0.2-1.9 0.4-1.9 0.6-1.7 0.6-1.7 0.6-1.7 0.8-1.7 0.8-1.5 1-1.5 1.2-1.5 1.2-1.4 1.3-1.3 1.3-120.7 133-14-8.7L748 260.6l-2.7-1.2-2.7-1.2-2.1-1-2.5-1-5-1.5-2.5-0.8-2.3-0.6-2.5-0.6-2.3-0.6-2.4-0.1-2.3-0.2-2.3-0.2-2.3-0.2h-4.6l-2.1 0.2-2.1 0.2-2.1 0.4-2.1 0.4-2.1 0.6-1.9 0.6-1.9 0.8-1.9 0.8-1.9 1-1.7 1-1.9 1.2-1.7 1.2-1.7 1.3-1.7 1.5-1.7 1.5-1.5 1.7-114 124.5-14-9.6 128.9-142.4-2.5-1-3.1-1.2-1.7-0.6-1.7-0.6-1.9-0.6-1.9-0.6-2.1-0.6-2.1-0.4-2.1-0.6-4.6-0.8-2.3-0.2-2.3-0.2h-7.5l-2.5 0.2-2.5 0.2-2.5 0.4-2.5 0.6-2.5 0.6-2.5 0.8-2.5 1-2.5 1-2.6 1.3-2.3 1.3-2.3 1.5-2.1 1.7-2.1 1.9-2.1 2.1-109.7 120.8-3.5 3.9-3.9 4.6-2.1 2.5-2.3 2.7-2.3 2.7-2.5 2.9-2.7 2.9-2.7 2.9-2.9 2.9-3.1 2.9-3.1 2.9-6.5 5.4-3.5 2.7-3.5 2.5-3.7 2.3-3.7 2.1-3.8 2.1-4.1 1.7-4 1.5-4 1.4-4.2 1.1-4.4 0.8-4.4 0.4H416l-4.6-0.2-4.8-0.6-4.8-1.1-4.8-1.5-5-1.9-3.3-1.5-3.3-1.7-3.1-1.7-3.1-1.9-3.1-1.9-3.1-2.1-2.9-2.1-2.9-2.3-2.9-2.5-2.9-2.3-2.9-2.5-3.1-1.9-5.6-5.2-5.6-5.2-2.9-2.5-8.7-7.5-2.9-2.3-2.9-2.3-3.1-2.3-3.1-2.1-3.1-1.9-3.1-1.9-3.3-1.9-3.3-1.7-3.3-1.5-3.5-1.3-3-1.8-3.5-1-3.7-0.8-3.7-0.6-3.7-0.4-3.7-0.2-3.7 0.2-3.7 0.4-3.7 0.6-3.5 0.8-3.5 1-3.5 1.2-3.5 1.3-3.3 1.5-3.3 1.7-3.1 1.9-3.1 1.9-2.9 2.1-2.9 2.3-2.7 2.5-2.5 2.5-2.5 2.7-2.3 2.7-2.1 2.9-1.9 3.1-1.7 3.1-1.7 3.3-1.5 3.3-1.2 3.3-1 3.5-0.8 3.5-0.6 3.7-0.4 3.7-0.2 3.7 4 0.2 4 0.4 3.9 0.4 3.9 0.6 3.7 0.8 3.7 1 3.5 1 3.5 1.2 3.3 1.4 3.3 1.5 3.1 1.7 3.1 1.7 2.9 1.9 2.7 2.1 2.7 2.3 2.7 2.5 2.5 2.7 2.3 2.9 2.3 3.1 2.1 3.1 3.9 6.9 1.7 3.7 1.7 3.8 1.5 4.1 1.4 4.2 1.3 4.4 1.2 4.6 1 4.8 1 5 0.8 5.2 0.6 5.4 1.2 8.7 1.3 8.5 1.5 8.3 1.9 8.1 2.1 7.9 2.5 7.7 2.7 7.7 2.9 7.5 3.3 7.3 3.5 7.1 3.9 6.9 4.2 6.9 4.4 6.7 4.8 6.5 5.2 6.3 5.6 6.4 6 6.2 6.2 6.2 6.5 6 6.9 6 7.3 5.8 7.7 5.8 8.1 5.6 8.7 5.6 9 5.6 9.4 5.4 9.8 5.4 10.4 5.4 10.8 5.4 11.2 5.2 11.7 5.2 12.1 5.2-82.7 92-239.2-264.9-12.7-15.4-10.8-15.8-8.7-15.8-6.9-16-5-16-3.3-15.8L114 424v-15.4l1.5-15.2 2.9-14.8 4.2-14.2 5.6-13.9 6.9-13.1 7.9-12.5 9-11.7 10-10.8 11-9.8 11.7-8.9 12.5-7.7 13.3-6.5 13.9-5.4 14.4-4 14.8-2.5 15.2-1.2 15.4 0.4 15.8 2.1 16 3.9 16 5.6 16 7.5 16 9.4 15.8 11.4 15.6 13.5 2.5 2.5 2.5 2.3 1.2 1.2 2.3 2.1 1.2 1 1.2 1 1.2 1 1.1 0.8 2.3 1.5 1.2 0.6 1.2 0.6 1.2 0.4 1.3 0.2 1.4 0.2h1.3l1.3-0.2 1.5-0.2 1.5-0.4 1.5-0.6 1.5-0.8 1.7-1 1.7-1.2 1.7-1.3 1.9-1.5 1.9-1.7 2.1-1.9 2.1-2.1 2.1-2.3 83.1-91.8 3.5-3.7 7.3-6.9 3.7-3.3 3.9-3.3 3.9-3.1 4-3.1 4-2.9 4-2.9 4.2-2.9 4.2-2.7 4.4-2.7 4.4-2.5 4.4-2.3 4.4-2.3 4.6-2.1 4.6-2.1 4.6-1.9 4.8-1.9 4.8-1.7 5-1.7 4.8-1.5 5-1.3 5-1.2 5-1.2 5-1 10.4-1.5 5.2-0.6 5.2-0.4 5.4-0.4 5.4-0.2h10.6l10.6 0.6 10.4 1.2 10.2 1.5 10 2.1 9.8 2.5 9.6 3.1 9.4 3.5 9.2 3.9 9 4.2 8.9 4.8 8.5 5.2 8.3 5.6 7.9 6 7.7 6.4 7.3 6.7 6.9 7.1 6.7 7.3 6.3 7.7 6 7.9 5.6 8.3 5.2 8.5 4.8 8.9 4.4 9 3.9 9.2 3.5 9.4 3.1 9.6 2.7 10 2.1 10.2 1.5 10.2 1.2 10.4 0.6 10.6 0.7 6z m0 0" fill="#F44336" p-id="9193"></path></svg>