<?xml version="1.0" standalone="no"?><!DOCTYPE svg PUBLIC "-//W3C//DTD SVG 1.1//EN" "http://www.w3.org/Graphics/SVG/1.1/DTD/svg11.dtd"><svg t="1765779899822" class="icon" viewBox="0 0 1024 1024" version="1.1" xmlns="http://www.w3.org/2000/svg" p-id="4736" width="500" height="500" xmlns:xlink="http://www.w3.org/1999/xlink"><path d="M434.210133 468.992h-172.714666a83.899733 83.899733 0 0 1-18.432-1.365333 172.578133 172.578133 0 1 1 190.464-189.098667 155.306667 155.306667 0 0 1 1.365333 17.749333l-0.682667 172.714667zM589.858133 296.96a93.3888 93.3888 0 0 1 1.365334-19.114667 172.578133 172.578133 0 1 1 189.098666 190.464 144.1792 144.1792 0 0 1-17.749333 1.365334h-172.714667zM762.5728 956.416a171.4176 171.4176 0 0 1-171.349333-154.965333 155.306667 155.306667 0 0 1-1.365334-17.749334V610.986667h172.714667a83.899733 83.899733 0 0 1 18.432 1.365333 172.578133 172.578133 0 0 1-18.432 344.064zM434.210133 783.701333a83.899733 83.899733 0 0 1-1.365333 18.432 172.578133 172.578133 0 1 1-189.098667-190.464 144.1792 144.1792 0 0 1 17.749334-1.365333h172.714666z" fill="#FFFFFF" p-id="4737"></path><path d="M431.479467 479.914667h-163.84a77.824 77.824 0 0 1-17.749334-1.365334 163.84 163.84 0 1 1 180.906667-179.541333 143.701333 143.701333 0 0 1 1.365333 17.066667l-0.682666 163.84zM592.5888 309.248a77.824 77.824 0 0 1 1.365333-17.749333 163.84 163.84 0 1 1 180.224 180.224 132.983467 132.983467 0 0 1-17.066666 1.365333H593.134933l-0.682666-163.84zM756.4288 948.906667A163.84 163.84 0 0 1 593.134933 802.133333a143.701333 143.701333 0 0 1-1.365333-17.066666V621.226667h163.84a77.824 77.824 0 0 1 17.749333 1.365333 163.84 163.84 0 0 1-17.066666 326.314667zM438.306133 785.066667a77.824 77.824 0 0 1-1.365333 17.749333 163.84 163.84 0 1 1-180.224-180.224 132.983467 132.983467 0 0 1 17.066667-1.365333h163.84l0.682666 163.84z" fill="#FF5252" p-id="4738"></path><path d="M261.495467 97.621333a198.929067 198.929067 0 0 0-21.845334 396.629334 103.6288 103.6288 0 0 0 21.845334 1.365333h199.338666V296.96c0-7.509333-0.682667-15.018667-1.365333-21.845333a198.929067 198.929067 0 0 0-197.973333-177.493334z m172.714666 371.370667h-172.714666a83.899733 83.899733 0 0 1-18.432-1.365333 172.578133 172.578133 0 1 1 190.464-189.098667 155.306667 155.306667 0 0 1 1.365333 17.749333l-0.682667 172.714667z m349.525334 25.258667a198.929067 198.929067 0 1 0-219.136-219.818667 124.859733 124.859733 0 0 0-1.365334 22.528v198.656h199.338667a93.730133 93.730133 0 0 0 21.162667-1.365333z m-193.877334-197.290667a93.3888 93.3888 0 0 1 1.365334-19.114667 172.578133 172.578133 0 1 1 189.098666 190.464 144.1792 144.1792 0 0 1-17.749333 1.365334h-172.714667zM784.2816 586.410667a128.887467 128.887467 0 0 0-21.845333-1.365334H563.234133v198.656c0 7.509333 0.682667 15.018667 1.365334 21.845334A198.929067 198.929067 0 1 0 784.2816 586.410667z m-21.845333 370.005333a171.4176 171.4176 0 0 1-171.349334-154.965333 155.306667 155.306667 0 0 1-1.365333-17.749334V610.986667h172.714667a83.899733 83.899733 0 0 1 18.432 1.365333 172.578133 172.578133 0 0 1-18.432 344.064zM240.3328 586.410667a198.929067 198.929067 0 1 0 219.136 219.818666 124.859733 124.859733 0 0 0 1.365333-22.528V585.045333h-199.338666a75.093333 75.093333 0 0 0-21.162667 1.365334z m193.877333 197.290666a83.899733 83.899733 0 0 1-1.365333 18.432 172.578133 172.578133 0 1 1-189.098667-190.464 144.1792 144.1792 0 0 1 17.749334-1.365333h172.714666z" p-id="4739"></path><path d="M839.714133 296.96H866.2016c0-72.362667-52.565333-131.754667-117.418667-131.754667v26.624c49.9712 0 90.9312 47.104 90.9312 105.130667zM852.548267 327.68a13.653333 13.653333 0 1 0 13.653333 13.653333 13.653333 13.653333 0 0 0-13.653333-13.653333z" p-id="4740"></path></svg>