<?xml version="1.0" standalone="no"?><!DOCTYPE svg PUBLIC "-//W3C//DTD SVG 1.1//EN" "http://www.w3.org/Graphics/SVG/1.1/DTD/svg11.dtd"><svg t="1765903508862" class="icon" viewBox="0 0 1024 1024" version="1.1" xmlns="http://www.w3.org/2000/svg" p-id="4754" width="500" height="500" xmlns:xlink="http://www.w3.org/1999/xlink"><path d="M521.959906 527.811765c63.909647 32.015059 102.098824-1.716706 92.461176-55.988706-9.637647-54.211765-71.740235-88.636235-71.740235-88.636235s38.550588 10.420706 64.240941 49.001411c25.720471 38.610824 31.051294 89.750588-2.138353 110.592-33.189647 20.871529-82.462118 1.024-82.462117 1.024s-35.358118 183.597176-82.462118 255.578353c-47.134118 71.981176-68.638118 61.530353-95.864471 48.158118-36.382118-17.92-54.061176-122.759529 6.415059-134.204235 22.377412-4.246588 40.719059 11.444706 40.719059 11.444705s-1.084235-9.366588-6.445176-15.661176c-5.360941-6.234353-32.105412-30.208-74.962824-11.444706-46.802824 20.510118-48.248471 119.265882 1.084235 177.001412 39.604706 46.351059 93.515294 41.562353 93.515294 41.562353l228.291765-1.084235s9.637647-12.498824-1.054117-26.081883c-6.535529-8.252235-29.997176-10.420706-29.997177-10.420706s11.806118-13.552941 21.443765-59.452235c9.637647-45.899294-8.583529-70.927059-44.995765-77.191529-36.412235-6.264471-77.101176 17.739294-77.101176 17.739294s31.051294-22.949647 58.910117-28.16c27.828706-5.240471 73.878588 3.102118 79.23953 50.055529 5.360941 46.953412-21.413647 89.720471-21.413647 89.720471s10.842353-1.204706 22.497882 9.396706c16.052706 14.576941 3.192471 33.370353 3.192471 33.370353h29.997176s17.136941-16.685176 1.054118-34.424471c-13.040941-14.426353-28.370824-8.463059-26.774589-18.793412 13.944471-89.690353 51.410824-131.433412 57.825883-229.49647 4.608-69.872941-52.826353-98.725647-52.826353-98.725647s-1.415529-27.105882 12.137412-40.357648c13.552941-13.191529 62.132706-24.335059 62.825411-58.398117 0.722824-34.063059-16.414118-70.234353-16.414117-70.234353s-22.829176 18.793412-48.549647 19.486118c-25.690353 0.692706-37.104941-20.871529-41.411765-25.750589-4.276706-4.879059-21.383529-12.498824-59.964235-1.385411-38.550588 11.143529-57.133176 34.785882-58.548706 38.249411-1.415529 3.463529 2.138353 19.456 9.999059 59.813647 7.830588 40.327529 9.276235 73.697882 9.276235 73.697883z" fill="#E5004A" opacity=".9" p-id="4755"></path><path d="M1011.070494 361.532235L576.533082 22.979765c-37.135059-30.659765-95.352471-30.599529-132.427294 0L12.971671 361.592471a36.562824 36.562824 0 0 0-5.632 49.874823 33.129412 33.129412 0 0 0 47.826823 5.812706l13.944471-11.535059v511.819294c0 60.928 60.536471 106.435765 114.688 106.435765h680.357647c53.519059 0 89.479529-42.767059 89.479529-106.375529v-512.90353l15.36 12.619294a32.888471 32.888471 0 0 0 47.766588-6.023529 36.532706 36.532706 0 0 0-5.722353-49.784471zM781.302965 970.089412H242.528376V494.802824c0-114.206118 84.329412-271.269647 269.492706-271.269648 185.344 0 269.462588 167.454118 269.462589 271.269648v195.824941l-0.150589 279.491764z" fill="#E5004A" opacity=".6" p-id="4756"></path></svg>