<?xml version="1.0" standalone="no"?><!DOCTYPE svg PUBLIC "-//W3C//DTD SVG 1.1//EN" "http://www.w3.org/Graphics/SVG/1.1/DTD/svg11.dtd"><svg t="1765903542774" class="icon" viewBox="0 0 1024 1024" version="1.1" xmlns="http://www.w3.org/2000/svg" p-id="6012" width="500" height="500" xmlns:xlink="http://www.w3.org/1999/xlink"><path d="M332.79484326 341.99378192A36.54451318 36.54451318 0 1 0 351.06709942 310.10869442a36.54451318 36.54451318 0 0 0-18.27225616 31.51964268zM580.56664326 341.99378192a36.54451318 36.54451318 0 1 0 36.54451319-36.54451318 36.54451318 36.54451318 0 0 0-36.54451319 36.54451318z" fill="#59311d" p-id="6013"></path><path d="M910.10679102 443.49616777v-0.9136125a1.00497393 1.00497393 0 0 1 0-0.45680625v-0.45680713L908.37092656 438.01449101l-0.45680625-0.45680625h-1.09633535l-127.90579658-58.19713769C769.41041503 205.31730253 748.94548818 118.24999999 716.51223213 118.24999999c-14.16099902 0-39.46807442 9.13612852-95.92934678 84.32646416a377.23073818 377.23073818 0 0 0-244.84823877 0C319.18201191 127.38612851 293.87493652 118.24999999 279.7139375 118.24999999c-32.52461661 0-52.98954433 86.70185771-61.02933663 259.10059922L91.60105537 435.36501405H90.50472002a3.92853516 3.92853516 0 0 0 0 0.45680625 0.82225195 0.82225195 0 0 1 0 0.45680625V766.00149716a104.7913919 104.7913919 0 0 0 100.31468906 104.70003047h614.58735147A104.7913919 104.7913919 0 0 0 910.10679102 766.00149716V443.49616777z m-50.61415079-9.13612852H779.55151748c0-12.7905794-0.73089052-25.12435253-1.27905821-37.18404228zM279.7139375 136.52225702c7.40026406 0 30.60603018 8.03979316 85.42279951 82.22515401l4.11125801 5.48167763 6.30392871-2.37539355a359.32392685 359.32392685 0 0 1 245.12232216 0l6.39529015 2.37539355 4.01989658-5.48167763c54.81677021-74.36808458 77.9311749-82.22515489 85.42279951-82.22515401 12.97330224 0 34.71728731 68.06415586 43.12252617 246.67546377a7.76570887 7.76570887 0 0 0 0 1.46178104c0.82225195 15.9882249 1.37041963 32.70733945 1.91858643 50.43142795H234.6728249c0-17.63272793 1.09633536-34.44320391 1.82722588-50.24870596a10.50654727 10.50654727 0 0 0 0-1.73586445c8.31387657-178.33722451 30.0578625-246.67546464 43.12252529-246.67546378z m-63.13064678 298.20322794H136.64216797l81.22018096-37.18404229c-0.54816768 12.05968974-0.9136125 24.39346289-1.2790582 37.18404229z" fill="#f9655c" p-id="6014"></path><path d="M422.60298418 556.78415908a449.4975126 449.4975126 0 0 1-65.50603945 87.15866396A25.94660449 25.94660449 0 0 0 340.01238448 629.87318544a223.92650479 223.92650479 0 0 0 49.70053828-52.35001524A250.60399981 250.60399981 0 0 0 422.96842989 511.10351738a74.55080742 74.55080742 0 0 0 22.2007913 10.96335439c1.73586445 0 2.64947695 1.2790582 2.64947784 2.64947694s-1.73586445 2.74083838-5.0248714 4.47670284a41.38666084 41.38666084 0 0 0-12.42513368 13.52146993q35.17409443 30.42330732 65.87148428 59.1107502l-15.16597295 15.80550204a521.21612021 521.21612021 0 0 0-58.4712211-60.84661465z m-9.13612764 187.19926874l44.21886065-67.79007159h-39.28535157a388.10273027 388.10273027 0 0 0-56.09582841 2.92356124V657.28157011a590.6506957 590.6506957 0 0 0 64.68378925 3.19764551 442.27997138 442.27997138 0 0 0 58.92802735-3.19764551v18.27225703c-4.38534141-0.45680625-11.14607637 6.02984443-20.55628917 19.55131436s-22.01806934 32.89006231-37.91493193 58.56258252q19.0945081 13.88691474 34.90001016 26.12932734L448.09278242 794.3234952a728.42351045 728.42351045 0 0 0-77.10892294-59.11075019l10.96335438-13.52146992c10.14110244 7.03481924 20.64764971 14.34372187 31.61100323 22.10943076z m32.61597803-102.59872031l-15.44005723 10.3238244a176.60136006 176.60136006 0 0 0-30.42330732-42.30027421l12.60785743-11.23743779a274.08384932 274.08384932 0 0 1 33.34686768 43.03116475z m108.08039795-4.56806426a89.62541895 89.62541895 0 0 0 16.5363917 1.64450303h8.03979316a2.00994786 2.00994786 0 0 1 2.28403213 2.19267071 4.20261943 4.20261943 0 0 1-1.64450302 3.56309032 12.24241172 12.24241172 0 0 0-2.92356123 5.66439874 31.51964268 31.51964268 0 0 0-1.27905821 8.58796084v12.24241172a153.76103965 153.76103965 0 0 1-16.99319883 73.08902724q-16.81047598 32.06781035-80.85473525 68.24687783c-1.09633536-6.66937354-6.66937354-12.51649599-16.71911455-17.45000507a176.50999863 176.50999863 0 0 0 58.01441484-31.15419698A97.57385068 97.57385068 0 0 0 549.59516826 721.23446884a123.24637089 123.24637089 0 0 0 8.22251513-40.29032637 347.17287568 347.17287568 0 0 0-3.56309032-44.31022206z m-4.11125801-85.51416094a612.94284844 612.94284844 0 0 0-63.95289785 2.64947696v-21.01309541q24.85026914 2.64947695 82.225154 2.55811641a649.85280645 649.85280645 0 0 0 74.36808457-2.55811641v21.01309541a695.71617099 695.71617099 0 0 0-73.08902637-2.64947696 419.43965097 419.43965097 0 0 1-14.80052812 45.22383458q53.35498916 0 73.08902725-1.27905732c0 8.40523799-0.63952911 21.37854023-0.63952911 39.01126727v62.30839571c0 10.9633544 0 24.94163057 0.63952911 41.93482851h-19.73403721V611.60092841h-85.51416093v127.3576289h-19.64267667c0.63952911-13.33874707 0.9136125-27.40838467 0.91361338-42.30027422v-62.58247822a365.44513271 365.44513271 0 0 0-1.2790582-39.01126816l33.62095195 1.2790582a292.35610635 292.35610635 0 0 0 13.88691563-45.22383544z m94.01076036 238.36158722l-16.17094688 15.80550204a379.88021513 379.88021513 0 0 0-63.2220082-56.18718896l8.03979316-13.88691475q43.30524815 29.96650107 71.35316192 54.26860165z" fill="#F2F2F2" p-id="6015"></path></svg>