<?xml version="1.0" standalone="no"?><!DOCTYPE svg PUBLIC "-//W3C//DTD SVG 1.1//EN" "http://www.w3.org/Graphics/SVG/1.1/DTD/svg11.dtd"><svg t="1765903582165" class="icon" viewBox="0 0 1024 1024" version="1.1" xmlns="http://www.w3.org/2000/svg" p-id="8030" width="500" height="500" xmlns:xlink="http://www.w3.org/1999/xlink"><path d="M665.98 121.18h199.756v349.576h-199.756z" fill="#B9BEFC" p-id="8031"></path><path d="M865.736 478.752h-199.752a8 8 0 0 1-8-8V121.18a8 8 0 0 1 8-8h199.752a8 8 0 0 1 8 8v349.576a8 8 0 0 1-8 7.996z m-191.756-16h183.752V129.18h-183.752v333.572z" fill="#3762CC" p-id="8032"></path><path d="M874.832 158.636H656.88a15.876 15.876 0 0 1-15.872-15.872V91.276a15.876 15.876 0 0 1 15.872-15.872h217.952a15.876 15.876 0 0 1 15.872 15.872v51.488a15.872 15.872 0 0 1-15.872 15.872z" fill="#F9A7A7" p-id="8033"></path><path d="M874.832 166.636h-217.948a23.9 23.9 0 0 1-23.876-23.872V91.272a23.9 23.9 0 0 1 23.876-23.872h217.948a23.9 23.9 0 0 1 23.876 23.872V142.76a23.904 23.904 0 0 1-23.876 23.876z m-217.948-83.232a7.88 7.88 0 0 0-7.876 7.872V142.76a7.88 7.88 0 0 0 7.876 7.872h217.948a7.88 7.88 0 0 0 7.876-7.872V91.272a7.88 7.88 0 0 0-7.876-7.872h-217.948z" fill="#3762CC" p-id="8034"></path><path d="M512 146.148l-353.736 303.796v448.712c0 27.58 22.36 49.94 49.94 49.94h607.592c27.58 0 49.94-22.36 49.94-49.94V449.948L512 146.148z" fill="#B9BEFC" p-id="8035"></path><path d="M815.796 956.596H208.204c-31.944 0-57.936-25.992-57.936-57.94V449.948c0-2.332 1.02-4.548 2.788-6.068l353.736-303.796a7.992 7.992 0 0 1 10.42 0l353.736 303.796c1.768 1.52 2.788 3.736 2.788 6.068v448.712c0 31.944-25.992 57.936-57.94 57.936zM166.264 453.624v445.036c0 23.124 18.812 41.94 41.936 41.94h607.592c23.124 0 41.936-18.816 41.936-41.94V453.624L512 156.696l-345.736 296.928z" fill="#3762CC" p-id="8036"></path><path d="M940.652 571.852c-12.98 7.34-28.144 5.28-38.448-3.564l-373.94-321.148a24.968 24.968 0 0 0-32.536 0l-373.94 321.148a33.32 33.32 0 0 1-21.688 8.036 33.104 33.104 0 0 1-23.544-9.748l-39.076-39.084a33.372 33.372 0 0 1-9.728-24.804 33.376 33.376 0 0 1 11.576-23.992l450.976-387.308a33.308 33.308 0 0 1 43.384 0.004l450.976 387.308a33.416 33.416 0 0 1 11.576 24 33.408 33.408 0 0 1-9.728 24.8l-39.052 39.056a32.132 32.132 0 0 1-6.808 5.296z" fill="#F9A7A7" p-id="8037"></path><path d="M923.8 584.368c-9.616 0-19.088-3.388-26.804-10.008l-373.936-321.152a16.884 16.884 0 0 0-22.116 0l-373.936 321.148a41.32 41.32 0 0 1-26.904 9.968 41.04 41.04 0 0 1-29.196-12.088l-39.08-39.088a41.428 41.428 0 0 1-12.072-30.76 41.44 41.44 0 0 1 14.356-29.76L485.092 85.32a41.312 41.312 0 0 1 53.816 0.004l450.976 387.308a41.464 41.464 0 0 1 14.36 29.76 41.416 41.416 0 0 1-12.072 30.76l-39.052 39.056c-2.776 2.776-5.568 4.936-8.532 6.612a42.2 42.2 0 0 1-20.788 5.548zM512 233.056c7.628 0 15.256 2.672 21.48 8.012l373.936 321.152c8.212 7.048 19.712 8.092 29.296 2.672 1.688-0.952 3.356-2.264 5.096-4l39.048-39.052a25.392 25.392 0 0 0 7.392-18.844 25.392 25.392 0 0 0-8.792-18.232L528.484 97.456a25.304 25.304 0 0 0-32.968 0L44.54 484.76a25.368 25.368 0 0 0-8.788 18.228 25.36 25.36 0 0 0 7.392 18.84l39.076 39.084a25.16 25.16 0 0 0 17.888 7.404 25.312 25.312 0 0 0 16.48-6.104l373.936-321.148A32.908 32.908 0 0 1 512 233.056z" fill="#3762CC" p-id="8038"></path><path d="M290.904 723.624l121.048 134.412c27.612 30.664 63.856 45.892 100.048 45.716 36.192 0.176 72.432-15.056 100.048-45.716l121.048-134.412c54.916-60.976 54.916-159.84 0-220.816s-143.952-60.976-198.864 0l-9.816 10.9c-6.856 7.612-17.976 7.612-24.832 0l-9.816-10.9c-54.916-60.976-143.952-60.976-198.864 0-54.916 60.976-54.916 159.84 0 220.816z" fill="#F9CFCF" p-id="8039"></path><path d="M290.904 723.624l121.048 134.412c27.612 30.664 63.856 45.892 100.048 45.716 36.192 0.176 72.432-15.056 100.048-45.716l121.048-134.412c54.916-60.976 54.916-159.84 0-220.816s-143.952-60.976-198.864 0l-9.816 10.9c-6.856 7.612-17.976 7.612-24.832 0l-9.816-10.9c-54.916-60.976-143.952-60.976-198.864 0-54.916 60.976-54.916 159.84 0 220.816z" fill="#F9CFCF" p-id="8040"></path><path d="M404.688 694a33.148 33.148 0 0 1-33.148-33.148v-18.944a33.148 33.148 0 0 1 33.148-33.148 33.148 33.148 0 0 1 33.148 33.148v18.944a33.148 33.148 0 0 1-33.148 33.148zM616.272 694a33.148 33.148 0 0 0 33.148-33.148v-18.944a33.148 33.148 0 0 0-33.148-33.148 33.148 33.148 0 0 0-33.148 33.148v18.944a33.148 33.148 0 0 0 33.148 33.148zM468.136 632.976a33.148 33.148 0 0 1-33.148-33.148v-18.944a33.148 33.148 0 0 1 33.148-33.148 33.148 33.148 0 0 1 33.148 33.148v18.944a33.148 33.148 0 0 1-33.148 33.148zM551.036 632.976a33.148 33.148 0 0 0 33.148-33.148v-18.944a33.148 33.148 0 0 0-33.148-33.148 33.148 33.148 0 0 0-33.148 33.148v18.944a33.148 33.148 0 0 0 33.148 33.148zM575.608 698.26c-2.936-0.732-4.976-3.22-4.976-6.06 0-31.056-26.932-56.228-60.156-56.228-33.224 0-60.156 25.176-60.156 56.228 0 2.84-2.04 5.328-4.976 6.06-25.36 6.336-44.04 27.944-44.04 53.644v1.376c0 30.676 26.604 55.54 59.42 55.54h99.496c32.816 0 59.42-24.868 59.42-55.54v-1.376c0.008-25.7-18.672-47.308-44.032-53.644z" fill="#4671C6" p-id="8041"></path><path d="M512.636 911.752h-1.348c-39.788 0-77.176-17.156-105.28-48.364L284.96 728.98c-57.488-63.832-57.488-167.692 0-231.524 28.096-31.2 65.52-48.38 105.38-48.38 39.856 0 77.276 17.18 105.376 48.38l9.816 10.9c3.556 3.948 9.384 3.948 12.936 0l9.816-10.9c28.096-31.2 65.52-48.38 105.376-48.38 39.86 0 77.28 17.18 105.38 48.38 57.488 63.832 57.488 167.692 0 231.524l-121.048 134.412c-28.104 31.204-65.496 48.36-105.356 48.36z m-0.676-16h0.592c35.348 0 68.52-15.28 93.548-43.072l121.048-134.412c52.172-57.928 52.172-152.18 0-210.108-25.02-27.784-58.224-43.088-93.488-43.088-35.26 0-68.464 15.304-93.484 43.088l-9.816 10.9c-4.852 5.388-11.376 8.356-18.36 8.356s-13.508-2.968-18.36-8.356l-9.816-10.9c-25.02-27.784-58.224-43.088-93.484-43.088-35.264 0-68.468 15.304-93.488 43.088-52.172 57.928-52.172 152.18 0 210.108l121.048 134.412c25.028 27.788 58.204 43.072 93.468 43.072h0.592z" fill="#3762CC" p-id="8042"></path><path d="M512.636 911.752h-1.348c-39.788 0-77.176-17.156-105.28-48.364L284.96 728.98c-57.488-63.832-57.488-167.692 0-231.524 28.096-31.2 65.52-48.38 105.38-48.38 39.856 0 77.276 17.18 105.376 48.38l9.816 10.9c3.556 3.948 9.384 3.948 12.936 0l9.816-10.9c28.096-31.2 65.52-48.38 105.376-48.38 39.86 0 77.28 17.18 105.38 48.38 57.488 63.832 57.488 167.692 0 231.524l-121.048 134.412c-28.104 31.204-65.496 48.36-105.356 48.36z m-0.676-16h0.592c35.348 0 68.52-15.28 93.548-43.072l121.048-134.412c52.172-57.928 52.172-152.18 0-210.108-25.02-27.784-58.224-43.088-93.488-43.088-35.26 0-68.464 15.304-93.484 43.088l-9.816 10.9c-4.852 5.388-11.376 8.356-18.36 8.356s-13.508-2.968-18.36-8.356l-9.816-10.9c-25.02-27.784-58.224-43.088-93.484-43.088-35.264 0-68.468 15.304-93.488 43.088-52.172 57.928-52.172 152.18 0 210.108l121.048 134.412c25.028 27.788 58.204 43.072 93.468 43.072h0.592z" fill="#3762CC" p-id="8043"></path></svg>